<svg height="64" viewBox="0 0 64 64" width="64" xmlns="http://www.w3.org/2000/svg" xmlns:xlink="http://www.w3.org/1999/xlink"><defs><path id="a" d="m61.93 46.902c0 .62-.494 1.143-1.078 1.143h-6.772c-.572 0-1.036.464-1.036 1.035v4.53l-4.586-5.213a1.04 1.04 0 0 0 -.777-.352h-24.975c-.593 0-1.075-.512-1.075-1.143v-25.507c0-.63.482-1.144 1.075-1.144h20.674c.01 0 .02.006.03.006.011 0 .02-.006.03-.006h17.413c.594 0 1.078.513 1.078 1.144v25.507zm-45.603-8.032c-.297 0-.58.128-.777.352l-4.585 5.216-.01-4.535a1.035 1.035 0 0 0 -1.035-1.033h-6.76c-.601 0-1.09-.52-1.09-1.158v-25.5c0-.63.489-1.14 1.09-1.14h38.139c.583 0 1.074.522 1.074 1.14v5.97h-19.667c-1.734 0-3.146 1.441-3.146 3.214v17.474zm44.525-20.69h-16.408v-5.969c0-1.771-1.411-3.211-3.145-3.211h-38.14c-1.742 0-3.159 1.44-3.159 3.211v25.5c0 1.78 1.417 3.228 3.16 3.228h5.727l.013 6.24a1.035 1.035 0 0 0 1.812.68l6.083-6.92h2.765v5.963c0 1.773 1.412 3.214 3.146 3.214h24.508l6.087 6.919a1.031 1.031 0 0 0 1.143.285c.403-.152.67-.538.67-.968l.002-6.236h5.736c1.736 0 3.148-1.441 3.148-3.214v-25.507c0-1.773-1.412-3.215-3.148-3.215zm-6.94 21.427h-23.68a1.034 1.034 0 1 0 0 2.07h23.68a1.034 1.034 0 1 0 0-2.07m0-6.753h-23.68a1.034 1.034 0 1 0 0 2.07h23.68a1.034 1.034 0 1 0 0-2.07m0-6.752h-23.68a1.034 1.034 0 1 0 0 2.07h23.68a1.034 1.034 0 1 0 0-2.07"/><mask id="b" fill="#fff"><use fill="none" xlink:href="#a"/></mask></defs><g fill="none" fill-rule="evenodd"><path d="m0 0h64v64h-64z"/><use fill="#2db56e" xlink:href="#a"/><g mask="url(#b)"><path d="m0 0h64v64h-64z" fill="#00bf6f"/></g></g></svg>