<svg height="64" viewBox="0 0 64 64" width="64" xmlns="http://www.w3.org/2000/svg" xmlns:xlink="http://www.w3.org/1999/xlink"><defs><path id="a" d="m51.517 44.433c-1.475 1.247-8.189 6.374-18.871 6.374-10.675 0-17.514-5.034-19.035-6.272v-13.744l18.665 7.42a1.004 1.004 0 0 0 .754-.007l18.487-7.708zm-18.771-31.355 28.094 11.365-28.203 11.758-28.937-11.5zm31.102 10.423-30.726-12.428a.993.993 0 0 0 -.746 0l-31.747 12.701a1 1 0 0 0 .002 1.857l10.98 4.364v15a1 1 0 0 0 .321.734c.311.29 7.782 7.077 20.714 7.077 12.944 0 20.26-6.909 20.565-7.204a.996.996 0 0 0 .306-.719v-15.221l5.96-2.484v8.438a2.615 2.615 0 1 0 2 0v-9.272l2.38-.993a.998.998 0 0 0 -.009-1.85z"/><mask id="b" fill="#fff"><use fill="none" xlink:href="#a"/></mask></defs><g fill="none" fill-rule="evenodd"><path d="m0 0h64v64h-64z"/><use fill="#2db56e" xlink:href="#a"/><g mask="url(#b)"><path d="m0 0h64v64h-64z" fill="#00bf6f"/></g></g></svg>