<svg height="64" viewBox="0 0 64 64" width="64" xmlns="http://www.w3.org/2000/svg" xmlns:xlink="http://www.w3.org/1999/xlink"><defs><path id="a" d="m21.868 39.857c0-4.766 1.344-4.59 3.558-5.331.823-.275 1.755-.587 2.791-1.387.363-.28.87-.284 1.235-.007l2.227 1.683 2.226-1.683a1.021 1.021 0 0 1 1.237.007c1.034.8 1.967 1.112 2.79 1.387 2.213.741 3.556.565 3.556 5.331zm6.433-15.193c.594-1.304 1.888-2.113 3.378-2.113s2.783.81 3.377 2.112c.694 1.524.459 3.78-.56 5.361-.715 1.112-1.715 1.725-2.817 1.725-1.1 0-2.103-.613-2.816-1.724-1.02-1.582-1.256-3.837-.562-5.361zm13.814-6.35h-20.872a.97.97 0 0 0 -.97.969v21.544c0 .536.435.97.97.97h20.872c.536 0 .97-.434.97-.97v-21.544a.969.969 0 0 0 -.97-.97zm-.071 31.27h-20.741a.97.97 0 0 1 0-1.94h20.74a.97.97 0 1 1 0 1.94zm-3.851 5.069h-13.039a.97.97 0 1 1 0-1.94h13.039a.97.97 0 1 1 0 1.94zm-7.123-45.063c.162.122.361.195.576.195.54 0 .963-.45.963-1.027v-2.36c0-.04.002-.082.007-.121v-3.293c0-.576-.434-1.045-.969-1.045-.53 0-.979.478-.979 1.045v5.775c0 .341.16.644.402.832zm-16.13 52.47h33.478v-54.693h-13.862v1.391c0 1.637-1.305 2.97-2.909 2.97-.65 0-1.25-.218-1.736-.584a2.979 2.979 0 0 1 -1.186-2.386v-1.39h-13.785zm34.448 1.94h-35.418a.97.97 0 0 1 -.97-.97v-56.632a.97.97 0 0 1 .97-.97h14.759v-2.444c0-1.645 1.309-2.984 2.918-2.984 1.604 0 2.909 1.339 2.909 2.984v2.444h14.832a.97.97 0 0 1 .97.97v56.632a.97.97 0 0 1 -.97.97z"/><mask id="b" fill="#fff"><use fill="none" xlink:href="#a"/></mask></defs><g fill="none" fill-rule="evenodd"><path d="m0 0h64v64h-64z"/><use fill="#2db56e" xlink:href="#a"/><g mask="url(#b)"><path d="m0 0h64v64h-64z" fill="#00bf6f"/></g></g></svg>