<svg height="64" viewBox="0 0 64 64" width="64" xmlns="http://www.w3.org/2000/svg" xmlns:xlink="http://www.w3.org/1999/xlink"><defs><path id="a" d="m8 58.792h48.111v-37.672h-48.111zm.001-49.711h9.37v1.211c0 .167.017.331.048.489.007.03.02.057.027.087.031.126.064.251.114.368.018.044.045.082.066.125.048.098.095.198.155.288.03.044.068.081.1.124.06.079.118.161.187.231l.005.005c.055.055.119.1.178.15.06.05.115.106.18.15.065.045.138.077.208.115.068.037.131.08.201.111.083.035.173.056.26.082.065.02.127.047.193.061.158.033.32.05.487.05h.001c1.318 0 2.391-1.093 2.391-2.436v-1.211h19.752v1.211c0 .167.017.331.049.489.006.03.019.057.026.087.031.126.064.251.114.369.022.052.054.098.079.148.045.09.087.181.142.265.043.064.097.12.146.179.048.06.091.124.144.178l.002.002c.072.073.155.134.235.197.042.033.079.072.123.103.079.054.168.095.254.14.053.028.101.063.156.086.089.038.186.061.28.089.058.017.113.042.173.054.157.033.32.05.486.05h.001c.156 0 .307-.018.454-.047.046-.009.089-.025.134-.037.1-.026.198-.054.292-.092.051-.021.099-.046.148-.071.082-.04.163-.083.241-.133.048-.031.094-.065.141-.099.034-.026.073-.048.107-.076.026-.022.046-.052.072-.075.073-.067.14-.137.203-.211a2.17 2.17 0 0 0 .128-.159c.06-.082.11-.169.16-.259.031-.057.065-.113.091-.173a2.39 2.39 0 0 0 .112-.321c.016-.055.037-.106.049-.162a2.42 2.42 0 0 0 .059-.522v-1.21h9.387v10.039h-48.111zm11.37-2.625c0-.243.192-.456.41-.456.208 0 .391.213.391.456v3.835c0 .367-.465.539-.683.302-.023-.025-.038-.055-.054-.085-.011-.018-.024-.032-.032-.05a.443.443 0 0 1 -.032-.167zm24.553 0c0-.243.192-.456.41-.456.208 0 .39.213.39.456v3.836a.487.487 0 0 1 -.038.183c-.007.016-.019.029-.027.044a.43.43 0 0 1 -.07.097c-.016.015-.035.027-.053.039a.35.35 0 0 1 -.082.046l-.021.005a.406.406 0 0 1 -.391-.112c-.023-.026-.039-.057-.056-.088-.009-.017-.023-.031-.03-.049a.458.458 0 0 1 -.032-.166zm14.188 1.625a1 1 0 0 0 -1-1h-10.388v-.625c0-1.354-1.072-2.456-2.39-2.456-1.329 0-2.41 1.102-2.41 2.456v.625h-19.752v-.625c0-1.354-1.073-2.456-2.391-2.456-1.329 0-2.41 1.102-2.41 2.456v.625h-10.37a1 1 0 0 0 -1 1v12.034l-.001.005v39.672a1 1 0 0 0 1 1h50.111a1 1 0 0 0 1-1v-39.667l.001-.005zm-42.125 42.932h7.624a1 1 0 0 0 1-1v-7.887a1 1 0 0 0 -1-1h-7.624a1 1 0 0 0 -1 1v7.887a1 1 0 0 0 1 1m12.26 0h7.622a1 1 0 0 0 1-1v-7.887a1 1 0 0 0 -1-1h-7.623a1 1 0 0 0 -1 1v7.887a1 1 0 0 0 1 1m12.255 0h7.624a1 1 0 0 0 1-1v-7.887a1 1 0 0 0 -1-1h-7.624a1 1 0 0 0 -1 1v7.887a1 1 0 0 0 1 1m-12.255-13.153h7.623a1 1 0 0 0 1-1v-7.87a1 1 0 0 0 -1-1h-7.623a1 1 0 0 0 -1 1v7.87a1 1 0 0 0 1 1m12.255 0h7.624a1 1 0 0 0 1-1v-7.87a1 1 0 0 0 -1-1h-7.624a1 1 0 0 0 -1 1v7.87a1 1 0 0 0 1 1m-24.514 0h7.624a1 1 0 0 0 1-1v-7.87a1 1 0 0 0 -1-1h-7.624a1 1 0 0 0 -1 1v7.87a1 1 0 0 0 1 1"/><mask id="b" fill="#fff"><use fill="none" xlink:href="#a"/></mask></defs><g fill="none" fill-rule="evenodd"><path d="m0 0h64v64h-64z"/><use fill="#2db56e" xlink:href="#a"/><g mask="url(#b)"><path d="m0 0h64v64h-64z" fill="#00bf6f"/></g></g></svg>