<svg height="64" viewBox="0 0 64 64" width="64" xmlns="http://www.w3.org/2000/svg" xmlns:xlink="http://www.w3.org/1999/xlink"><defs><path id="a" d="m52.519 53.911a1.76 1.76 0 0 1 -1.76-1.759c0-.97.79-1.759 1.76-1.759s1.759.79 1.759 1.76a1.76 1.76 0 0 1 -1.76 1.758m0-5.518a3.764 3.764 0 0 0 -3.758 3.76 3.764 3.764 0 0 0 3.759 3.758 3.764 3.764 0 0 0 3.759-3.759 3.764 3.764 0 0 0 -3.76-3.759m0 8.806a5.053 5.053 0 0 1 -5.047-5.047 5.054 5.054 0 0 1 5.048-5.048 5.053 5.053 0 0 1 5.047 5.048 5.053 5.053 0 0 1 -5.047 5.047m0-12.095a7.056 7.056 0 0 0 -7.048 7.048c0 1.97.814 3.75 2.12 5.03-1.433 1.785-5.916 6.28-13.558 4.391-9.292-2.296-9.062-11.82-9.047-12.263v-8.937c9.845-.244 17.804-8.222 17.98-18.08.003-.028.004-.054.004-.08v-17.502a4.716 4.716 0 0 0 -4.711-4.71h-3.661a1 1 0 1 0 0 2h3.66a2.714 2.714 0 0 1 2.712 2.71v17.242c0 9.066-7.376 16.442-16.442 16.442h-1.084c-9.067 0-16.444-7.375-16.444-16.442v-17.242a2.715 2.715 0 0 1 2.712-2.71h3.706a1 1 0 1 0 0-2h-3.706a4.717 4.717 0 0 0 -4.712 4.709v17.502c0 .026 0 .052.003.08.178 9.858 8.138 17.836 17.983 18.08v8.898c-.004.116-.325 11.553 10.566 14.243 1.467.363 2.829.516 4.087.516 3.58 0 6.308-1.246 8.128-2.477a15.494 15.494 0 0 0 3.438-3.185 7.007 7.007 0 0 0 3.314.831 7.055 7.055 0 0 0 7.047-7.047c0-3.886-3.161-7.048-7.047-7.048"/><mask id="b" fill="#fff"><use fill="none" xlink:href="#a"/></mask></defs><g fill="none" fill-rule="evenodd"><path d="m0 0h64v64h-64z"/><use fill="#2db56e" xlink:href="#a"/><g mask="url(#b)"><path d="m0 0h64v64h-64z" fill="#00bf6f"/></g></g></svg>